<?xml version="1.0" encoding="UTF-8" standalone="no"?>
<!-- Created with Inkscape (http://www.inkscape.org/) -->

<svg
   width="116mm"
   height="116mm"
   viewBox="0 0 116 116"
   version="1.1"
   id="svg5"
   inkscape:version="1.1 (c68e22c387, 2021-05-23)"
   sodipodi:docname="stars.svg"
   xmlns:inkscape="http://www.inkscape.org/namespaces/inkscape"
   xmlns:sodipodi="http://sodipodi.sourceforge.net/DTD/sodipodi-0.dtd"
   xmlns="http://www.w3.org/2000/svg"
   xmlns:svg="http://www.w3.org/2000/svg">
  <sodipodi:namedview
     id="namedview7"
     pagecolor="#ffffff"
     bordercolor="#999999"
     borderopacity="1"
     inkscape:pageshadow="0"
     inkscape:pageopacity="0"
     inkscape:pagecheckerboard="0"
     inkscape:document-units="mm"
     showgrid="false"
     inkscape:snap-nodes="false"
     inkscape:zoom="0.98268795"
     inkscape:cx="94.129576"
     inkscape:cy="234.05192"
     inkscape:window-width="1920"
     inkscape:window-height="992"
     inkscape:window-x="-8"
     inkscape:window-y="-8"
     inkscape:window-maximized="1"
     inkscape:current-layer="layer2" />
  <defs
     id="defs2" />
  <g
     inkscape:groupmode="layer"
     id="layer2"
     inkscape:label="Chasing through city night"
     style="display:inline;opacity:1"
     transform="translate(-53.31041,-55.195122)">
    <circle
       style="opacity:1;fill:#000000;stroke-width:30.2341;paint-order:markers fill stroke;fill-opacity:1"
       id="path854"
       cx="111.31041"
       cy="113.19512"
       r="58" />
    <path
       id="rect885"
       style="opacity:1;fill:#fcd407;fill-opacity:1;stroke-width:113.386;paint-order:markers fill stroke"
       d="m 447.92773,297.90039 v 104.33594 h 110.45313 v -1.79297 L 475.99219,375.25195 448.5957,297.90039 Z"
       transform="scale(0.26458333)" />
    <path
       id="rect885-8"
       style="fill:#fcd407;fill-opacity:1;stroke-width:30;paint-order:markers fill stroke"
       d="m 118.6572,146.88162 v -27.60555 h 29.22406 v 0.47439 l -21.79867,6.66522 -7.24865,20.46594 z" />
    <path
       id="rect885-8-1"
       style="fill:#fcd407;fill-opacity:1;stroke-width:30;paint-order:markers fill stroke"
       d="M 105.04472,147.54797 V 119.94242 H 75.820658 v 0.47439 l 21.79867,6.66522 7.248652,20.46594 z" />
    <path
       id="rect885-8-1-7"
       style="fill:#fcd407;fill-opacity:1;stroke-width:30;paint-order:markers fill stroke"
       d="M 104.56877,79.104922 V 106.71047 H 75.3447 v -0.47439 l 21.798667,-6.665218 7.248653,-20.46594 z" />
    <rect
       style="opacity:1;fill:#f1f13d;fill-opacity:1;stroke-width:29.3476;paint-order:markers fill stroke"
       id="rect6049"
       width="1.7134581"
       height="37.398674"
       x="110.69675"
       y="59.661781"
       ry="0.7474786" />
    <rect
       style="fill:#f1f13d;fill-opacity:1;stroke-width:29.3476;paint-order:markers fill stroke"
       id="rect6049-0"
       width="1.7134581"
       height="37.398674"
       x="110.80385"
       y="129.41989"
       ry="0.7474786" />
    <rect
       style="fill:#f1f13d;fill-opacity:1;stroke-width:29.3476;paint-order:markers fill stroke"
       id="rect6049-0-0"
       width="1.7134581"
       height="37.398674"
       x="111.47021"
       y="-166.62819"
       ry="0.7474786"
       transform="rotate(90)" />
    <rect
       style="fill:#f1f13d;fill-opacity:1;stroke-width:29.3476;paint-order:markers fill stroke"
       id="rect6049-0-0-9"
       width="1.7134581"
       height="37.398674"
       x="113.08847"
       y="-93.996452"
       ry="0.7474786"
       transform="rotate(90)" />
    <path
       id="path14749"
       style="opacity:1;fill:#fd1716;fill-opacity:1;stroke:none;stroke-width:0.5;stroke-miterlimit:3.8;stroke-dasharray:none;stroke-opacity:1;paint-order:markers fill stroke"
       inkscape:transform-center-x="5.548984e-06"
       inkscape:transform-center-y="-3.7013092e-06"
       d="m 122.9796,112.63138 c 0,-0.28009 -6.35214,2.25496 -7.87594,3.67237 -1.52381,1.41741 -3.73529,7.98618 -3.46288,7.98618 0.27242,0 -1.93907,-6.4678 -3.42922,-7.98618 -1.49015,-1.51838 -7.9096,-3.95246 -7.9096,-3.67237 0,0.2801 6.11655,-1.68282 7.77497,-3.20119 1.65843,-1.51837 3.83627,-8.45736 3.56385,-8.45736 -0.27241,0 2.17466,7.0063 3.46288,8.42371 1.28822,1.4174 7.87594,3.51494 7.87594,3.23484 z"
       sodipodi:nodetypes="szszszszs" />
  </g>
</svg>
